<?xml version="1.0" encoding="UTF-8"?>
<svg id="Capa_2" data-name="Capa 2" xmlns="http://www.w3.org/2000/svg" viewBox="0 0 322.58 246.82">
  <defs>
    <style>
      .cls-1 {
        fill: #669e3a;
      }

      .cls-2 {
        fill: #727272;
      }

      .cls-3 {
        fill: #bfbfbf;
      }

      .cls-4 {
        fill: #d0cfcf;
      }

      .cls-5 {
        fill: #a6a6a6;
      }

      .cls-6 {
        fill: #bababa;
      }

      .cls-7 {
        isolation: isolate;
      }

      .cls-8 {
        fill: #72a848;
      }

      .cls-9 {
        fill: #d6d6d6;
      }

      .cls-10 {
        fill: #818181;
      }

      .cls-11 {
        fill: #bab9b9;
      }

      .cls-12 {
        fill: #724017;
      }

      .cls-13 {
        fill: #b8b8b8;
      }

      .cls-14 {
        fill: #a3a3a3;
      }

      .cls-15 {
        fill: #adadad;
      }

      .cls-16 {
        fill: #4f4f4f;
      }

      .cls-17 {
        fill: #cecece;
      }

      .cls-18 {
        fill: #fcfcfc;
      }
    </style>
  </defs>
  <g id="OBJECTS">
    <g>
      <g class="cls-7">
        <path class="cls-14" d="m189.39,55.63l-.12,43.72c-7.5-4.33-19.62-4.33-27.07,0l.12-43.72c7.45-4.33,19.57-4.33,27.07,0Z"/>
        <polygon class="cls-15" points="284.81 110.72 284.69 154.44 189.27 99.35 189.39 55.63 284.81 110.72"/>
        <path class="cls-6" d="m290.46,118.61l-.12,43.72c0-2.86-1.88-5.72-5.65-7.9l.12-43.72c3.77,2.18,5.66,5.04,5.65,7.9Z"/>
        <polygon class="cls-3" points="162.32 55.63 162.2 99.35 37.68 171.71 37.8 127.99 162.32 55.63"/>
        <path class="cls-6" d="m322.58,120.54l-.12,26.22c-.01,4.1-2.71,8.2-8.09,11.32l.12-26.22c5.38-3.13,8.08-7.22,8.09-11.32Z"/>
        <path class="cls-6" d="m32.12,179.49l.12-43.72c0-2.82,1.86-5.63,5.56-7.78l-.12,43.72c-3.7,2.15-5.55,4.96-5.56,7.78Z"/>
        <path class="cls-14" d="m0,160.06l.12-26.22c-.01,4.15,2.73,8.31,8.22,11.48l-.12,26.22C2.73,168.37-.01,164.21,0,160.06Z"/>
        <polygon class="cls-3" points="314.49 131.86 314.37 158.08 169.79 242.1 169.91 215.88 314.49 131.86"/>
        <polygon class="cls-15" points="130.54 215.88 130.42 242.09 8.22 171.54 8.35 145.33 130.54 215.88"/>
        <path class="cls-9" d="m314.36,109.05c10.91,6.3,10.97,16.51.13,22.81l-144.58,84.02c-10.83,6.3-28.46,6.3-39.37,0L8.35,145.33c-10.91-6.3-10.97-16.51-.14-22.8L152.79,38.5c10.84-6.3,28.47-6.3,39.38,0l122.2,70.55Zm-153.98,89.71l124.52-72.36c7.45-4.33,7.41-11.35-.09-15.68l-95.42-55.09c-7.5-4.33-19.62-4.33-27.07,0L37.8,127.99c-7.45,4.33-7.4,11.35.1,15.68l95.42,55.09c7.5,4.33,19.62,4.33,27.07,0"/>
        <path class="cls-14" d="m169.91,215.88l-.12,26.22c-10.83,6.3-28.46,6.3-39.37,0l.12-26.22c10.91,6.3,28.54,6.3,39.37,0Z"/>
      </g>
      <g>
        <polygon class="cls-12" points="266.18 102.52 147.96 171.6 63.46 122.82 181.69 53.74 266.18 102.52"/>
        <polygon class="cls-8" points="246.8 107.1 148.67 164.13 75.86 122.1 174 65.07 246.8 107.1"/>
        <g>
          <g class="cls-7">
            <polygon class="cls-1" points="246.76 107.12 240.4 110.82 167.6 68.78 173.95 65.09 246.76 107.12"/>
            <polygon class="cls-1" points="233.66 114.74 227.3 118.43 154.5 76.4 160.85 72.7 233.66 114.74"/>
            <polygon class="cls-1" points="220.56 122.35 214.21 126.04 141.4 84.01 147.76 80.31 220.56 122.35"/>
            <polygon class="cls-1" points="207.46 129.96 201.1 133.65 128.3 91.62 134.65 87.93 207.46 129.96"/>
            <polygon class="cls-1" points="194.36 137.57 188.01 141.26 115.2 99.23 121.56 95.54 194.36 137.57"/>
            <polygon class="cls-1" points="155.06 160.41 148.71 164.1 75.91 122.07 82.26 118.38 155.06 160.41"/>
          </g>
          <polygon class="cls-1" points="181.26 145.18 174.91 148.88 102.1 106.84 108.46 103.15 181.26 145.18"/>
          <polygon class="cls-1" points="168.16 152.8 161.81 156.49 89.01 114.45 95.36 110.76 168.16 152.8"/>
        </g>
        <g>
          <path class="cls-18" d="m192.49,96.49c.32.18.32.48,0,.67-.31.18-.83.18-1.15,0-.32-.18-.32-.48,0-.67.32-.18.83-.19,1.16,0Z"/>
          <g class="cls-7">
            <path class="cls-18" d="m192.1,81.54l26.2,15.13-.26.15-10.6,6.16-26.2-15.13,10.6-6.16.26-.15Zm15.34,21.13l10.34-6.01-25.68-14.83-10.34,6.01,25.68,14.83"/>
            <path class="cls-18" d="m178,96.01l15.38,8.88-.38.02s-.06,0-.08,0c-4.1.26-8.13-.56-11.05-2.25-2.93-1.69-4.35-4.02-3.92-6.39,0-.02,0-.03,0-.05l.04-.22Zm4.13,6.51c2.77,1.6,6.56,2.4,10.45,2.2l-14.29-8.25c-.32,2.25,1.07,4.45,3.84,6.05"/>
            <path class="cls-18" d="m130.8,96.82l21.05,12.15s-.09.05-.13.08c-.04.02-.08.05-.13.07l-21.05-12.15-.19-.11.26-.15.19.11Z"/>
            <path class="cls-18" d="m171.07,120.07s-.09.05-.13.08c-.04.02-.09.05-.13.07-5.27,2.98-13.77,2.96-19.02-.07-5.26-3.04-5.33-7.96-.19-11.02.04-.02.08-.05.13-.07.04-.03.09-.05.13-.08,5.28-2.98,13.77-2.96,19.03.08,5.25,3.03,5.32,7.95.19,11.02Zm-.52,0s.09-.05.13-.07c.04-.03.09-.05.13-.08,4.99-2.98,4.92-7.77-.19-10.71-5.11-2.95-13.37-2.98-18.5-.08-.04.03-.09.05-.13.08-.04.02-.08.05-.13.07-4.99,2.98-4.92,7.77.19,10.72,5.11,2.95,13.37,2.97,18.5.07"/>
            <polygon class="cls-18" points="236.11 106.96 148.39 157.94 86.55 122.23 174.27 71.25 184.95 77.42 184.69 77.57 174.27 71.56 130.8 96.82 130.35 96.86 87.07 122.23 97.49 128.25 97.23 128.4 137.71 151.77 137.97 151.62 148.39 157.63 191.86 132.37 192.32 132.34 235.59 106.96 225.17 100.94 225.43 100.79 236.11 106.96"/>
          </g>
          <path class="cls-18" d="m192.12,132.22l.2.11-.26.15-.2-.11-21.05-12.15s.09-.05.13-.07c.04-.03.09-.05.13-.08l21.05,12.15Z"/>
          <path class="cls-18" d="m152.12,109.12l18.69,10.79s-.09.05-.13.08c-.04.02-.09.05-.13.07l-18.69-10.79s.08-.05.13-.07c.04-.03.09-.05.13-.08Z"/>
          <g class="cls-7">
            <path class="cls-18" d="m131.33,132.04c.32.18.32.48,0,.67-.31.18-.83.18-1.15,0s-.32-.48,0-.67c.32-.18.83-.19,1.16,0Z"/>
            <path class="cls-18" d="m115.22,126.22l26.2,15.13-10.59,6.15-.26.15-26.2-15.13.26-.15,10.59-6.15Zm15.35,21.13l10.34-6.01-25.68-14.83-10.34,6.01,25.68,14.83"/>
            <path class="cls-18" d="m144.72,132.92l12.75,7.36-19.5,11.33-.26.15-7.14-4.12.26-.15,6.87,3.97,19.24-11.18-12.28-7.09.05-.22s0-.03,0-.05Z"/>
          </g>
          <path class="cls-18" d="m97.75,128.4l6.88,3.97-.26.15-7.14-4.12.26-.15,19.5-11.33,12.76,7.37s-.06,0-.08,0l-.38.03-12.29-7.1-19.24,11.18Z"/>
          <path class="cls-18" d="m144.71,132.97l-.05.22-15.38-8.88.38-.03s.06,0,.08,0c4.1-.26,8.12.56,11.05,2.25,2.92,1.69,4.35,4.02,3.92,6.39,0,.02,0,.03,0,.05Zm-14.62-8.49l14.29,8.25c.32-2.25-1.06-4.44-3.84-6.04-2.77-1.6-6.56-2.4-10.45-2.21"/>
          <path class="cls-18" d="m178,96.01l-.04.22s0,.03,0,.05l-12.76-7.37,19.5-11.33.26-.15,7.14,4.12-.26.15-6.88-3.97-19.25,11.19,12.29,7.1Z"/>
          <path class="cls-18" d="m218.3,96.67l7.14,4.12-.26.15-19.5,11.33-12.75-7.36s.06,0,.08,0l.38-.02,12.28,7.09,19.25-11.19-6.87-3.97.26-.15Z"/>
        </g>
      </g>
      <g class="cls-7">
        <path class="cls-14" d="m188.63,22.78l-.12,42.53c-7.29-4.21-19.09-4.21-26.34,0l.12-42.53c7.25-4.21,19.04-4.21,26.34,0Z"/>
        <polygon class="cls-3" points="162.29 22.78 162.17 65.31 41.05 135.7 41.17 93.17 162.29 22.78"/>
        <polygon class="cls-15" points="281.44 76.37 281.32 118.9 188.51 65.31 188.63 22.78 281.44 76.37"/>
        <path class="cls-6" d="m286.94,84.05l-.12,42.53c0-2.78-1.83-5.56-5.5-7.68l.12-42.53c3.67,2.12,5.5,4.9,5.5,7.68Z"/>
        <path class="cls-6" d="m35.64,143.27l.12-42.53c0-2.74,1.81-5.48,5.41-7.57l-.12,42.53c-3.6,2.09-5.4,4.83-5.41,7.57Z"/>
        <path class="cls-6" d="m318.18,85.92l-.12,25.5c-.01,3.99-2.63,7.97-7.87,11.02l.12-25.5c5.24-3.04,7.86-7.03,7.87-11.02Z"/>
        <path class="cls-14" d="m4.4,124.36l.12-25.5c-.01,4.04,2.66,8.09,8,11.17l-.12,25.5c-5.34-3.08-8.01-7.13-8-11.17Z"/>
        <polygon class="cls-3" points="310.31 96.94 310.19 122.44 169.56 204.17 169.68 178.67 310.31 96.94"/>
        <polygon class="cls-15" points="131.38 178.66 131.26 204.16 12.4 135.54 12.52 110.04 131.38 178.66"/>
        <path class="cls-14" d="m169.68,178.67l-.12,25.5c-10.54,6.12-27.68,6.12-38.3,0l.12-25.5c10.61,6.13,27.76,6.13,38.3,0Z"/>
        <path class="cls-9" d="m41.17,111.65l121.12-70.39c7.25-4.21,19.04-4.21,26.34,0l92.82,53.59c1.43.82,2.57,1.75,3.44,2.73,3.61-4.06,2.46-9.18-3.44-12.59l-92.82-53.59c-7.29-4.21-19.09-4.21-26.34,0L41.17,101.79c-5.83,3.39-6.93,8.46-3.35,12.51.85-.96,1.97-1.86,3.35-2.66Z"/>
        <path class="cls-9" d="m271.35,104.31c2.66-1.67,5.27-3.42,7.86-5.21l-90.59-52.3c-7.29-4.21-19.09-4.21-26.34,0L41.17,117.19c-1.02.59-1.89,1.24-2.62,1.93.1.12.19.24.28.38,1.46,2.14,3.08,4.18,4.83,6.1l118.63-68.94c7.25-4.21,19.04-4.21,26.34,0l82.61,47.7s.07-.03.11-.04Z"/>
        <path class="cls-9" d="m310.19,74.75c10.61,6.13,10.67,16.06.12,22.19l-140.64,81.73c-10.54,6.12-27.68,6.12-38.3,0L12.52,110.04c-10.61-6.13-10.67-16.06-.13-22.18L153.02,6.12c10.54-6.13,27.69-6.13,38.3,0l118.86,68.63Zm-149.78,87.26l121.12-70.39c7.25-4.21,7.21-11.04-.09-15.25l-92.82-53.59c-7.29-4.21-19.09-4.21-26.34,0L41.17,93.17c-7.25,4.21-7.2,11.04.09,15.25l92.82,53.59c7.3,4.21,19.08,4.22,26.33,0"/>
      </g>
      <g>
        <polygon class="cls-3" points="314.49 131.86 314.37 158.08 169.79 242.1 169.91 215.88 314.49 131.86"/>
        <path class="cls-16" d="m202.89,204.67c-2.9,1.67-5.24,5.73-5.23,9.07l.03,12.14,10.51-6.11-.03-12.1c0-3.34-2.37-4.67-5.28-3Z"/>
        <path class="cls-16" d="m250.49,178.76c-2.9,1.67-5.24,5.73-5.23,9.07l.03,10.4,10.51-6.11-.03-10.36c0-3.34-2.37-4.67-5.28-3Z"/>
        <path class="cls-16" d="m298.1,151.61c-2.9,1.67-5.24,5.73-5.23,9.07l.02,9.89,10.51-6.11-.02-9.85c0-3.34-2.37-4.67-5.28-3Z"/>
      </g>
      <g>
        <path class="cls-16" d="m84.95,198.48c-2.9-1.68-5.27-.34-5.28,3l-.03,11.3,10.51,6.07.03-11.3c0-3.34-2.34-7.39-5.23-9.07Z"/>
        <path class="cls-16" d="m37.34,172.56c-2.9-1.68-5.27-.34-5.28,3l-.03,9.73,10.51,6.07.03-9.73c0-3.34-2.34-7.39-5.23-9.07Z"/>
      </g>
      <g>
        <path class="cls-16" d="m186.15,179.57c-1.39.8-2.52,2.75-2.52,4.36v4.75s5.06-2.94,5.06-2.94v-4.73c-.02-1.6-1.15-2.25-2.55-1.44Z"/>
        <path class="cls-16" d="m201.03,170.87c-1.39.8-2.52,2.75-2.52,4.36v4.75s5.06-2.94,5.06-2.94v-4.73c-.02-1.6-1.15-2.25-2.55-1.44Z"/>
        <path class="cls-16" d="m215.92,162.18c-1.39.8-2.52,2.75-2.52,4.36v4.75s5.06-2.94,5.06-2.94v-4.73c-.02-1.6-1.15-2.25-2.55-1.44Z"/>
        <path class="cls-16" d="m230.8,153.48c-1.39.8-2.52,2.75-2.52,4.36v4.75s5.06-2.94,5.06-2.94v-4.73c-.02-1.6-1.15-2.25-2.55-1.44Z"/>
        <path class="cls-16" d="m245.68,144.78c-1.39.8-2.52,2.75-2.52,4.36v4.75s5.06-2.94,5.06-2.94v-4.73c-.02-1.6-1.15-2.25-2.55-1.44Z"/>
        <path class="cls-16" d="m260.56,136.09c-1.39.8-2.52,2.75-2.52,4.36v4.75s5.06-2.94,5.06-2.94v-4.73c-.02-1.6-1.15-2.25-2.55-1.44Z"/>
        <path class="cls-16" d="m275.44,127.39c-1.39.8-2.52,2.75-2.52,4.36v4.75s5.06-2.94,5.06-2.94v-4.73c-.02-1.6-1.15-2.25-2.55-1.44Z"/>
        <path class="cls-16" d="m290.32,118.7c-1.39.8-2.52,2.75-2.52,4.36v4.75s5.06-2.94,5.06-2.94v-4.73c-.02-1.6-1.15-2.25-2.55-1.44Z"/>
        <path class="cls-16" d="m305.2,110c-1.39.8-2.52,2.75-2.52,4.36v4.75s5.06-2.94,5.06-2.94v-4.73c-.02-1.6-1.15-2.25-2.55-1.44Z"/>
      </g>
      <g>
        <path class="cls-16" d="m124,184.82c1.39.8,2.52,2.75,2.52,4.36v4.75s-5.06-2.94-5.06-2.94v-4.73c.02-1.6,1.15-2.25,2.55-1.44Z"/>
        <path class="cls-16" d="m109.12,176.12c1.39.8,2.52,2.75,2.52,4.36v4.75s-5.06-2.94-5.06-2.94v-4.73c.02-1.6,1.15-2.25,2.55-1.44Z"/>
        <path class="cls-16" d="m94.24,167.43c1.39.8,2.52,2.75,2.52,4.36v4.75s-5.06-2.94-5.06-2.94v-4.73c.02-1.6,1.15-2.25,2.55-1.44Z"/>
        <path class="cls-16" d="m79.36,158.73c1.39.8,2.52,2.75,2.52,4.36v4.75s-5.06-2.94-5.06-2.94v-4.73c.02-1.6,1.15-2.25,2.55-1.44Z"/>
        <path class="cls-16" d="m64.48,150.03c1.39.8,2.52,2.75,2.52,4.36v4.75s-5.06-2.94-5.06-2.94v-4.73c.02-1.6,1.15-2.25,2.55-1.44Z"/>
        <path class="cls-16" d="m49.6,141.34c1.39.8,2.52,2.75,2.52,4.36v4.75s-5.06-2.94-5.06-2.94v-4.73c.02-1.6,1.15-2.25,2.55-1.44Z"/>
        <path class="cls-16" d="m34.72,132.64c1.39.8,2.52,2.75,2.52,4.36v4.75s-5.06-2.94-5.06-2.94v-4.73c.02-1.6,1.15-2.25,2.55-1.44Z"/>
        <path class="cls-16" d="m19.84,123.95c1.39.8,2.52,2.75,2.52,4.36v4.75s-5.06-2.94-5.06-2.94v-4.73c.02-1.6,1.15-2.25,2.55-1.44Z"/>
      </g>
      <g class="cls-7">
        <g>
          <polygon class="cls-5" points="213.7 1.06 213.62 29.08 257.27 54.28 257.35 26.26 213.7 1.06"/>
          <polygon class="cls-17" points="217.5 26.84 217.56 7.76 253.47 28.49 253.41 47.58 217.5 26.84"/>
        </g>
        <polygon class="cls-2" points="257.27 54.28 259.09 53.22 259.17 25.2 257.35 26.26 257.27 54.28"/>
        <polygon class="cls-13" points="257.35 26.26 259.17 25.2 215.52 0 213.7 1.06 257.35 26.26"/>
      </g>
      <g class="cls-7">
        <polygon class="cls-5" points="52.55 98.66 52.47 126.68 96.12 151.89 96.2 123.87 52.55 98.66"/>
        <polygon class="cls-2" points="96.12 151.89 97.94 150.83 98.02 122.81 96.2 123.87 96.12 151.89"/>
        <polygon class="cls-13" points="96.2 123.87 98.02 122.81 54.37 97.61 52.55 98.66 96.2 123.87"/>
      </g>
      <g class="cls-7">
        <polygon class="cls-10" points="63.43 115.57 63.37 137.3 60.85 135.85 60.91 114.12 63.43 115.57"/>
        <polygon class="cls-11" points="63.43 115.57 65.79 114.2 65.73 135.93 63.37 137.3 63.43 115.57"/>
        <polygon class="cls-4" points="60.91 114.12 63.27 112.75 65.79 114.2 63.43 115.57 60.91 114.12"/>
      </g>
      <g class="cls-7">
        <polygon class="cls-10" points="78.45 124.39 78.39 146.12 75.87 144.67 75.93 122.94 78.45 124.39"/>
        <polygon class="cls-11" points="78.45 124.39 80.82 123.02 80.75 144.75 78.39 146.12 78.45 124.39"/>
        <polygon class="cls-4" points="75.93 122.94 78.3 121.57 80.82 123.02 78.45 124.39 75.93 122.94"/>
      </g>
    </g>
  </g>
</svg>